<svg viewBox="0 0 2000 2000" xmlns="http://www.w3.org/2000/svg" xmlns:serif="http://www.serif.com/" fill-rule="evenodd" clip-rule="evenodd" stroke-linecap="square" stroke-linejoin="round" stroke-miterlimit="1.4"><path fill="url(#_Linear1)" d="M0-43.6h2000V2000H0z" transform="matrix(1 0 0 .97867 0 42.7)"/><path d="M393.8 939.9c14.3 62 89 98 166.6 80s129-82.8 114.6-145l-281.2 65zm281.2-65c14.3 62.2 88.9 98 166.5 80 77.7-17.9 129-82.7 114.6-144.9L675 875zM956 810c14.4 62.2 89 98 166.6 80 77.6-17.9 129-82.8 114.6-144.9l-281.2 65zm281.2-64.9c14.4 62.1 89 98 166.6 80 77.6-17.9 129-82.8 114.6-144.9l-281.2 65zm281.2-64.9A577.1 577.1 0 0 0 393.8 940l1124.7-259.7z" fill="#fff" serif:id="Parachute"/><g fill="none" stroke="#fff" stroke-width="20"><path d="M1403.9 825.1l-305 603.5L560.5 1020"/><path d="M841.5 955l257.5 473.6 23.7-538.5"/></g><path fill="#fff" d="M986.4 1582.3l281.1-65 46.8 202.5-281.2 65zm-18.2-78.8l281.1-65 13 56.3-281.2 65z"/><defs><linearGradient id="_Linear1" x2="1" gradientUnits="userSpaceOnUse" gradientTransform="matrix(0 -2043.6 2000 0 1000 2000)"><stop offset="0" stop-color="#009285"/><stop offset="1" stop-color="#00d38b"/></linearGradient></defs></svg>