<svg xmlns="http://www.w3.org/2000/svg" fill-rule="evenodd" stroke-miterlimit="1.41" viewBox="0 0 1054 453" clip-rule="evenodd" stroke-linejoin="round"><path fill-opacity="0.11" d="M118.93 52.63c0-2.76-2.24-5-5-5h-88c-2.76 0-5 2.24-5 5v14c0 2.76 2.24 5 5 5h88c2.76 0 5-2.24 5-5v-14zm70.07 0c0-2.76-2.24-5-5-5h-49.65c-2.76 0-5 2.24-5 5v14c0 2.76 2.24 5 5 5H184c2.76 0 5-2.24 5-5v-14zm70.87 0c0-2.76-2.24-5-5-5H205.2c-2.75 0-5 2.24-5 5v14c0 2.76 2.25 5 5 5h49.67c2.76 0 5-2.24 5-5v-14zm70.13 0c0-2.76-2.24-5-5-5h-49.65c-2.76 0-5 2.24-5 5v14c0 2.76 2.24 5 5 5H325c2.76 0 5-2.24 5-5v-14zm70.1 0c0-2.76-2.24-5-5-5h-49.66c-2.76 0-5 2.24-5 5v14c0 2.76 2.24 5 5 5h49.66c2.76 0 5-2.24 5-5v-14zm69.76 0c0-2.76-2.24-5-5-5H415.2c-2.75 0-5 2.24-5 5v14c0 2.76 2.25 5 5 5h49.66c2.76 0 5-2.24 5-5v-14zm69.88 0c0-2.76-2.24-5-5-5h-49.66c-2.76 0-5 2.24-5 5v14c0 2.76 2.24 5 5 5h49.66c2.76 0 5-2.24 5-5v-14zm69.94 0c0-2.76-2.24-5-5-5h-49.66c-2.76 0-5 2.24-5 5v14c0 2.76 2.24 5 5 5h49.66c2.76 0 5-2.24 5-5v-14zm70.3 0c0-2.76-2.25-5-5-5H625.3c-2.76 0-5 2.24-5 5v14c0 2.76 2.24 5 5 5h49.65c2.76 0 5-2.24 5-5v-14zm69.8 0c0-2.76-2.25-5-5-5H695.1c-2.76 0-5 2.24-5 5v14c0 2.76 2.24 5 5 5h49.65c2.76 0 5-2.24 5-5v-14zm70.05 0c0-2.76-2.24-5-5-5h-49.65c-2.76 0-5 2.24-5 5v14c0 2.76 2.24 5 5 5h49.65c2.76 0 5-2.24 5-5v-14zm69.54 0c0-2.76-2.24-5-5-5h-49.65c-2.76 0-5 2.24-5 5v14c0 2.76 2.24 5 5 5h49.65c2.76 0 5-2.24 5-5v-14zm70.73 0c0-2.76-2.24-5-5-5h-49.66c-2.76 0-5 2.24-5 5v14c0 2.76 2.24 5 5 5h49.66c2.76 0 5-2.24 5-5v-14zm70.7 0c0-2.76-2.25-5-5-5h-49.66c-2.76 0-5 2.24-5 5v14c0 2.76 2.24 5 5 5h49.65c2.72 0 5-2.24 5-5v-14zM82.86 85.8c0-2.75-2.24-5-5-5h-50c-2.76 0-5 2.25-5 5v48c0 2.77 2.24 5 5 5h50c2.76 0 5-2.23 5-5v-48zm36.57 67.2c0-2.76-2.24-5-5-5H28.16c-2.76 0-5 2.24-5 5v48c0 2.76 2.24 5 5 5h86.27c2.76 0 5-2.24 5-5v-48zm34.5-67.2c0-2.75-2.24-5-5-5h-50c-2.76 0-5 2.25-5 5v48c0 2.77 2.24 5 5 5h50c2.76 0 5-2.23 5-5v-48zm36.75 67.2c0-2.76-2.24-5-5-5h-50c-2.76 0-5 2.24-5 5v48c0 2.76 2.24 5 5 5h50c2.76 0 5-2.24 5-5v-48zm17.35 66.44c0-2.76-2.24-5-5-5h-50c-2.76 0-5 2.24-5 5v48c0 2.76 2.24 5 5 5h50c2.76 0 5-2.24 5-5v-48zm35.6 66.86c0-2.76-2.23-5-5-5h-50c-2.75 0-5 2.24-5 5v48c0 2.76 2.25 5 5 5h50c2.77 0 5-2.24 5-5v-48zM83.87 353.5c0-2.76-2.24-5-5-5h-50c-2.76 0-5 2.24-5 5v48c0 2.76 2.24 5 5 5h50c2.76 0 5-2.24 5-5v-48zM138 219.08c0-2.76-2.25-5-5-5H27.82c-2.76 0-5 2.24-5 5v48c0 2.76 2.24 5 5 5h105.15c2.76 0 5-2.24 5-5v-48zm34.3 68.12c0-2.77-2.25-5-5-5H27.83c-2.76 0-5 2.23-5 5v48c0 2.75 2.24 5 5 5H167.3c2.74 0 5-2.25 5-5v-48zm860.04 0c0-2.77-2.24-5-5-5H887.87c-2.76 0-5 2.23-5 5v48c0 2.75 2.24 5 5 5h139.46c2.76 0 5-2.25 5-5v-48zm0-67.76c0-2.76-2.25-5-5-5H922.17c-2.76 0-5 2.24-5 5v48c0 2.76 2.24 5 5 5h105.16c2.75 0 5-2.24 5-5v-48zM154.64 353.5c0-2.76-2.23-5-5-5h-50c-2.74 0-5 2.24-5 5v48c0 2.76 2.26 5 5 5h50c2.77 0 5-2.24 5-5v-48zm70.76 0c0-2.76-2.23-5-5-5h-50c-2.75 0-5 2.24-5 5v48c0 2.76 2.25 5 5 5h50c2.77 0 5-2.24 5-5v-48zm594.2 0c0-2.76-2.24-5-5-5h-50c-2.76 0-5 2.24-5 5v48c0 2.76 2.24 5 5 5h50c2.76 0 5-2.24 5-5v-48zm70.4 0c0-2.76-2.25-5-5-5h-50c-2.77 0-5 2.24-5 5v48c0 2.76 2.23 5 5 5h50c2.75 0 5-2.24 5-5v-48zm142.37 0c0-2.76-2.24-5-5-5h-50c-2.76 0-5 2.24-5 5v48c0 2.76 2.24 5 5 5h50c2.76 0 5-2.24 5-5v-48zm-71.8 0c0-2.76-2.25-5-5-5h-50c-2.77 0-5 2.24-5 5v12.52c0 2.76 2.23 5 5 5h50c2.75 0 5-2.24 5-5V353.5zm0 35.33c0-2.76-2.25-5-5-5h-50c-2.77 0-5 2.24-5 5v12.67c0 2.76 2.23 5 5 5h50c2.75 0 5-2.24 5-5v-12.67zm-647.3-35.33c0-2.76-2.24-5-5-5h-66.43c-2.75 0-5 2.24-5 5v48c0 2.76 2.25 5 5 5h66.43c2.76 0 5-2.24 5-5v-48zm436 0c0-2.76-2.24-5-5-5h-66.43c-2.76 0-5 2.24-5 5v48c0 2.76 2.24 5 5 5h66.43c2.76 0 5-2.24 5-5v-48zm-86.9 0c0-2.76-2.22-5-5-5h-328c-2.75 0-5 2.24-5 5v48c0 2.76 2.25 5 5 5h328c2.78 0 5-2.24 5-5v-48zm-348.35-67.2c0-2.76-2.24-5-5-5h-50c-2.76 0-5 2.24-5 5v48c0 2.76 2.24 5 5 5h50c2.76 0 5-2.24 5-5v-48zm70.48 0c0-2.76-2.24-5-5-5h-50c-2.76 0-5 2.24-5 5v48c0 2.76 2.24 5 5 5h50c2.76 0 5-2.24 5-5v-48zm69.82 0c0-2.76-2.24-5-5-5h-50c-2.76 0-5 2.24-5 5v48c0 2.76 2.24 5 5 5h50c2.76 0 5-2.24 5-5v-48zm69.18 0c0-2.76-2.25-5-5-5h-50c-2.77 0-5 2.24-5 5v48c0 2.76 2.23 5 5 5h50c2.75 0 5-2.24 5-5v-48zm69.4 0c0-2.76-2.23-5-5-5h-50c-2.75 0-5 2.24-5 5v48c0 2.76 2.25 5 5 5h50c2.77 0 5-2.24 5-5v-48zm69.54 0c0-2.76-2.24-5-5-5h-50c-2.76 0-5 2.24-5 5v48c0 2.76 2.24 5 5 5h50c2.76 0 5-2.24 5-5v-48zm69.56 0c0-2.76-2.25-5-5-5h-50c-2.76 0-5 2.24-5 5v48c0 2.76 2.24 5 5 5h50c2.75 0 5-2.24 5-5v-48zm70.3 0c0-2.76-2.23-5-5-5h-50c-2.75 0-5 2.24-5 5v48c0 2.76 2.25 5 5 5h50c2.77 0 5-2.24 5-5v-48zm69.6-.45c0-2.76-2.24-5-5-5h-50c-2.76 0-5 2.24-5 5v48c0 2.76 2.24 5 5 5h50c2.76 0 5-2.24 5-5v-48zm-593.18-66.4c0-2.77-2.24-5-5-5h-50c-2.76 0-5 2.23-5 5v48c0 2.75 2.24 5 5 5h50c2.76 0 5-2.25 5-5v-48zm69.68 0c0-2.77-2.25-5-5-5h-50c-2.77 0-5 2.23-5 5v48c0 2.75 2.23 5 5 5h50c2.75 0 5-2.25 5-5v-48zm70.2 0c0-2.77-2.25-5-5-5h-50c-2.77 0-5 2.23-5 5v48c0 2.75 2.23 5 5 5h50c2.75 0 5-2.25 5-5v-48zm69.14 0c0-2.77-2.24-5-5-5h-50c-2.76 0-5 2.23-5 5v48c0 2.75 2.24 5 5 5h50c2.76 0 5-2.25 5-5v-48zm69.7-.37c0-2.76-2.23-5-5-5h-50c-2.74 0-5 2.24-5 5v48c0 2.76 2.26 5 5 5h50c2.77 0 5-2.24 5-5v-48zm70.08 0c0-2.76-2.24-5-5-5h-50c-2.76 0-5 2.24-5 5v48c0 2.76 2.24 5 5 5h50c2.76 0 5-2.24 5-5v-48zm69.5.36c0-2.76-2.24-5-5-5h-50c-2.76 0-5 2.24-5 5v48c0 2.76 2.24 5 5 5h50c2.76 0 5-2.24 5-5v-48zm69.68-.36c0-2.76-2.25-5-5-5h-50c-2.77 0-5 2.24-5 5v48c0 2.76 2.23 5 5 5h50c2.75 0 5-2.24 5-5v-48zm70.03.36c0-2.76-2.24-5-5-5h-50c-2.76 0-5 2.24-5 5v48c0 2.76 2.24 5 5 5h50c2.76 0 5-2.24 5-5v-48zm70.07-.36c0-2.76-2.23-5-5-5h-50c-2.75 0-5 2.24-5 5v48c0 2.76 2.25 5 5 5h50c2.77 0 5-2.24 5-5v-48zM261.25 153c0-2.76-2.24-5-5-5h-50c-2.76 0-5 2.24-5 5v48c0 2.76 2.24 5 5 5h50c2.76 0 5-2.24 5-5v-48zm70 0c0-2.76-2.24-5-5-5h-50c-2.76 0-5 2.24-5 5v48c0 2.76 2.24 5 5 5h50c2.76 0 5-2.24 5-5v-48zm70.15 0c0-2.76-2.24-5-5-5h-50c-2.76 0-5 2.24-5 5v48c0 2.76 2.24 5 5 5h50c2.76 0 5-2.24 5-5v-48zm69.72 0c0-2.76-2.24-5-5-5h-50c-2.76 0-5 2.24-5 5v48c0 2.76 2.24 5 5 5h50c2.76 0 5-2.24 5-5v-48zm69.2 0c0-2.76-2.23-5-5-5h-50c-2.75 0-5 2.24-5 5v48c0 2.76 2.25 5 5 5h50c2.77 0 5-2.24 5-5v-48zm69.72 0c0-2.76-2.24-5-5-5h-50c-2.76 0-5 2.24-5 5v48c0 2.76 2.24 5 5 5h50c2.76 0 5-2.24 5-5v-48zm69.76 0c0-2.76-2.24-5-5-5h-50c-2.76 0-5 2.24-5 5v48c0 2.76 2.24 5 5 5h50c2.76 0 5-2.24 5-5v-48zm69.32 0c0-2.76-2.24-5-5-5h-50c-2.76 0-5 2.24-5 5v48c0 2.76 2.24 5 5 5h50c2.76 0 5-2.24 5-5v-48zm69.75 0c0-2.76-2.24-5-5-5h-50c-2.76 0-5 2.24-5 5v48c0 2.76 2.24 5 5 5h50c2.76 0 5-2.24 5-5v-48zm70.5 0c0-2.76-2.24-5-5-5h-50c-2.76 0-5 2.24-5 5v48c0 2.76 2.24 5 5 5h50c2.76 0 5-2.24 5-5v-48zm70.47 0c0-2.76-2.24-5-5-5h-50c-2.76 0-5 2.24-5 5v48c0 2.76 2.24 5 5 5h50c2.76 0 5-2.24 5-5v-48zm71.48 0c0-2.76-2.24-5-5-5h-50c-2.76 0-5 2.24-5 5v48c0 2.76 2.24 5 5 5h50c2.76 0 5-2.24 5-5v-48zM225.08 85.8c0-2.75-2.24-5-5-5h-50c-2.76 0-5 2.25-5 5v48c0 2.77 2.24 5 5 5h50c2.76 0 5-2.23 5-5v-48zm70.06 0c0-2.75-2.24-5-5-5h-50c-2.76 0-5 2.25-5 5v48c0 2.77 2.24 5 5 5h50c2.76 0 5-2.23 5-5v-48zm69.96 0c0-2.75-2.23-5-5-5h-50c-2.75 0-5 2.25-5 5v48c0 2.77 2.25 5 5 5h50c2.77 0 5-2.23 5-5v-48zm70.08 0c0-2.75-2.24-5-5-5h-50c-2.76 0-5 2.25-5 5v48c0 2.77 2.24 5 5 5h50c2.76 0 5-2.23 5-5v-48zm69.82 0c0-2.75-2.24-5-5-5h-50c-2.76 0-5 2.25-5 5v48c0 2.77 2.24 5 5 5h50c2.76 0 5-2.23 5-5v-48zm70.18 0c0-2.75-2.24-5-5-5h-50c-2.76 0-5 2.25-5 5v48c0 2.77 2.24 5 5 5h50c2.76 0 5-2.23 5-5v-48zm70 0c0-2.75-2.25-5-5-5h-50c-2.77 0-5 2.25-5 5v48c0 2.77 2.23 5 5 5h50c2.75 0 5-2.23 5-5v-48zm69.55 0c0-2.75-2.24-5-5-5h-50c-2.76 0-5 2.25-5 5v48c0 2.77 2.24 5 5 5h50c2.76 0 5-2.23 5-5v-48zm69.67 0c0-2.75-2.25-5-5-5h-50c-2.77 0-5 2.25-5 5v48c0 2.77 2.23 5 5 5h50c2.75 0 5-2.23 5-5v-48zm69.82 0c0-2.75-2.24-5-5-5h-50c-2.76 0-5 2.25-5 5v48c0 2.77 2.24 5 5 5h50c2.76 0 5-2.23 5-5v-48zm70.28 0c0-2.75-2.25-5-5-5h-50c-2.77 0-5 2.25-5 5v48c0 2.77 2.23 5 5 5h50c2.75 0 5-2.23 5-5v-48zm107.3 0c0-2.75-2.25-5-5-5h-87c-2.76 0-5 2.25-5 5v48c0 2.77 2.24 5 5 5h87c2.75 0 5-2.23 5-5v-48z"/></svg>
